# xmcd
#
# Track frame offsets:
#	150
#	14775
#	27525
#
# Disc length: 579 seconds
#
# Revision: 1
# Processed by: cddbd v1.5.2PL0 Copyright (c) Steve Scherf et al.
# Submitted via: EasyCDDAExtractor 10.0.6.1
#
DISCID=23024103
DTITLE=Various Artist - CDX 3 April 1991
DYEAR=2005
DGENRE=Indie
TTITLE0=Lee Greenwood - Hopelessly Yours
TTITLE1=Glen Campbell - Living In A Houseful Of Love
TTITLE2=Tony Toliver - Swinging Doors
EXTD=YEAR: 2005
EXTT0=
EXTT1=
EXTT2=
PLAYORDER=
